<svg xmlns="http://www.w3.org/2000/svg" width="1200" height="520" viewBox="0 0 1200 520" role="img" aria-labelledby="title desc">
  <title id="title">ASL-to-Text training workflow</title>
  <desc id="desc">Diagram showing data folders, training, model output, and desktop app prediction.</desc>
  <rect width="1200" height="520" fill="#f6f8fb"/>
  <text x="60" y="76" font-family="Arial, sans-serif" font-size="30" font-weight="700" fill="#17202a">Training workflow</text>
  <rect x="60" y="130" width="250" height="250" rx="8" fill="#ffffff" stroke="#d9e2ec"/>
  <text x="92" y="178" font-family="Arial, sans-serif" font-size="20" font-weight="700" fill="#17202a">data/raw</text>
  <text x="92" y="220" font-family="Arial, sans-serif" font-size="16" fill="#52616f">A/image_001.jpg</text>
  <text x="92" y="252" font-family="Arial, sans-serif" font-size="16" fill="#52616f">B/image_001.jpg</text>
  <text x="92" y="284" font-family="Arial, sans-serif" font-size="16" fill="#52616f">space/image_001.jpg</text>
  <text x="92" y="316" font-family="Arial, sans-serif" font-size="16" fill="#52616f">del/image_001.jpg</text>
  <path d="M338 255h104" stroke="#1d4ed8" stroke-width="5" stroke-linecap="round"/>
  <path d="M430 238l24 17-24 17z" fill="#1d4ed8"/>
  <rect x="470" y="130" width="250" height="250" rx="8" fill="#ffffff" stroke="#d9e2ec"/>
  <text x="502" y="178" font-family="Arial, sans-serif" font-size="20" font-weight="700" fill="#17202a">asl-train-model</text>
  <rect x="514" y="218" width="162" height="94" rx="8" fill="#e8f3ff" stroke="#8bb8ff"/>
  <text x="548" y="256" font-family="Arial, sans-serif" font-size="18" font-weight="700" fill="#1d4ed8">CNN</text>
  <text x="530" y="286" font-family="Arial, sans-serif" font-size="14" fill="#52616f">128x128 images</text>
  <path d="M748 255h104" stroke="#1d4ed8" stroke-width="5" stroke-linecap="round"/>
  <path d="M840 238l24 17-24 17z" fill="#1d4ed8"/>
  <rect x="880" y="130" width="250" height="250" rx="8" fill="#ffffff" stroke="#d9e2ec"/>
  <text x="912" y="178" font-family="Arial, sans-serif" font-size="20" font-weight="700" fill="#17202a">models/</text>
  <text x="912" y="220" font-family="Arial, sans-serif" font-size="16" fill="#52616f">best_model_CNN.keras</text>
  <text x="912" y="252" font-family="Arial, sans-serif" font-size="16" fill="#52616f">GitHub Release asset</text>
  <rect x="912" y="292" width="156" height="44" rx="6" fill="#0f766e"/>
  <text x="938" y="320" font-family="Arial, sans-serif" font-size="16" font-weight="700" fill="#ffffff">Run app</text>
</svg>
